PathFileType	4	(X/Y/Z)	Patient5_TMGait_0pt45_1_left_14.trc.trc
DataRate	CameraRate	NumFrames	NumMarkers	Units	OrigDataRate	OrigDataStartFrame	OrigNumFrames
62.500000000000	62.500000000000	4	32	mm	62.500000000000	106	       141
Frame#	Time	R.ASIS			L.ASIS			Chest			R.Shoulder			Neck			L.Shoulder			L.Elbow			L.Wrist			R.Elbow			R.Wrist			L.Thigh.Superior			L.Thigh.Lateral			L.Thigh.Inferior			L.Patella			L.Shank.Superior			L.Shank.Lateral			L.Shank.Inferior			L.Heel			L.Midfoot.Lateral			L.Midfoot.Superior			L.Toe			R.Thigh.Superior			R.Thigh.Lateral			R.Thigh.Inferior			R.Patella			R.Shank.Superior			R.Shank.Lateral			R.Shank.Inferior			R.Heel			R.Midfoot.Lateral			R.Midfoot.Superior			R.Toe			
		X1	Y1	Z1	X2	Y2	Z2	X3	Y3	Z3	X4	Y4	Z4	X5	Y5	Z5	X6	Y6	Z6	X7	Y7	Z7	X8	Y8	Z8	X9	Y9	Z9	X10	Y10	Z10	X11	Y11	Z11	X12	Y12	Z12	X13	Y13	Z13	X14	Y14	Z14	X15	Y15	Z15	X16	Y16	Z16	X17	Y17	Z17	X18	Y18	Z18	X19	Y19	Z19	X20	Y20	Z20	X21	Y21	Z21	X22	Y22	Z22	X23	Y23	Z23	X24	Y24	Z24	X25	Y25	Z25	X26	Y26	Z26	X27	Y27	Z27	X28	Y28	Z28	X29	Y29	Z29	X30	Y30	Z30	X31	Y31	Z31	X32	Y32	Z32	

106	23.640000000000	1065.479621110319	967.281251451220	607.214955995370	1037.087700720883	954.091941725803	371.878151657255	1130.778433997211	1426.668989694501	518.027934189896	1044.078919729988	1479.894703034557	695.009096189538	1003.202916202257	1550.401185254799	516.347563942663	1056.771845862561	1506.469928705111	329.009231491030	957.473656834182	1202.153203015351	186.357373612434	1043.089631785090	923.676836159809	197.240341111584	987.885773692949	1160.872223184156	846.078047682027	1203.929381854781	988.014148928445	759.102921634813	1098.412238359587	755.633253007701	335.467852901914	1042.958448665929	675.849716139361	291.143286810673	1136.957735442848	632.432053864013	339.249004715896	1149.602859803386	483.877598625062	330.743507753419	1043.307472823806	406.291966728648	356.169010428097	946.383519931284	399.796625874522	281.007828825017	936.414425339564	339.286284471947	369.146085842118	683.397541932222	271.817446279947	366.087372869662	724.074643783502	182.773924944972	314.413430903116	835.880811448890	154.593025094867	358.793927548547	873.742521464785	50.812168030641	373.734799912696	1057.794109085206	733.488942532274	622.527109509811	965.024842590001	661.667145893986	676.442882813441	1035.807945803297	606.349351502450	595.906421086770	1030.226811671367	511.964844486846	620.442538906776	988.491416647332	420.425389612430	581.602515134075	924.481596020877	348.249994309952	662.747212146952	980.183057495243	282.230837196857	576.129966862063	869.570345436381	53.322713915900	533.958649340239	946.981816260571	24.409747194744	607.996507193408	1052.878275797850	88.035938866408	584.975311941377	1156.935037463846	44.735227934687	585.998507760076	
107	23.656000000000	1063.898576798132	967.021258681288	609.251748661984	1035.850948504337	953.834444110676	373.523131331820	1132.644069542472	1425.424620319370	517.859504483044	1047.491829494281	1478.807629464127	695.145100071421	1005.556040248180	1549.743997243010	516.829606544022	1057.905903995697	1505.838301314712	329.312663199232	956.124661779508	1201.162794341856	188.573818783231	1042.154164907881	922.852362345056	199.563719777508	993.323525182711	1160.486692129243	848.163948438431	1207.418231545690	984.428204721645	762.511443385197	1101.837581446758	760.744925192906	338.775619387487	1049.787031164502	679.476292749991	293.186567764505	1144.666903829624	639.157122432711	342.585607627553	1162.006704688451	490.343741649238	333.529322184446	1056.539242907493	410.624535782472	358.159661011531	960.037876527361	403.078309337987	282.579087610180	950.199441516176	342.304395925098	370.497449641633	697.684929083984	269.582223819333	366.323970293247	741.706622647266	182.978614702674	313.850134366000	853.818006941236	157.943580362239	358.973885767873	894.901088881124	54.608573664131	372.730538174378	1055.515454818526	732.954446891454	624.573934980889	962.033057858769	661.610405408576	677.814153172244	1032.899586178642	605.795285267567	597.670081632222	1026.405599196133	511.412519384458	621.892803520519	984.097150004889	420.266269099334	582.758189126834	919.401221038781	348.407087428471	663.622862208050	974.593334098052	282.078473740764	576.951574379695	862.285069008030	53.454576949742	534.247815134530	939.735643665441	24.409018834568	608.150616942473	1045.659999054475	88.003798261376	585.136869512766	1149.709561894097	44.741503050250	586.063133808218	
108	23.672000000000	1062.337856095349	966.817815098750	611.208596005838	1034.609461727076	953.877959149981	374.867979768421	1134.590797677796	1424.343488431299	517.481045113491	1050.912649971515	1478.170234306673	694.933593532542	1008.099355217900	1549.358382132890	516.900920766150	1059.494068936731	1505.268339856671	329.293847524783	955.628910429806	1200.366384377873	190.143922401098	1041.717141316451	922.145040676989	201.904064561416	998.188050186376	1160.592625319022	849.711266233902	1210.490161650717	981.544401093406	765.356046773141	1104.624620620956	766.083507965688	342.141445482069	1055.874607255349	683.516246313814	295.310646023174	1151.310865005248	646.110357660140	346.152611028378	1173.379339346551	497.378706078783	336.560579606381	1069.521668139354	414.893290680602	360.334002867342	973.550541289186	405.304766595182	284.369169797750	964.599813834565	344.051673390464	371.991655053438	713.565738516101	262.688454717170	366.703010969066	762.066545316368	179.511609920231	313.265787468308	874.673642479581	159.268684614945	358.981324710233	920.560608251458	57.893753589692	371.393678716095	1053.476530845686	732.506638100873	626.189860238713	959.407804357492	661.544426264616	678.850310532347	1030.332346108116	605.241441772132	599.026578484538	1022.998081059996	510.894197899170	622.986792810912	980.086404801099	420.074100649567	583.637127761936	914.678735539297	348.579566038183	664.286048021259	969.233908927226	281.889395314595	577.566667388019	854.996305676822	53.567304771610	534.509360966411	932.505993276936	24.427766129049	608.293929046420	1038.471452731828	87.966323323705	585.280953358743	1142.507116795997	44.753376097783	586.137000865338	
109	23.688000000000	1060.896888361606	966.548157902147	612.895622327281	1033.336468898665	954.179395728861	375.857052517485	1136.624336618693	1423.399045190266	516.931174709913	1054.333987161948	1477.950006244571	694.467145949662	1010.800818820237	1549.188214924468	516.644412327706	1061.467590784889	1504.706162782769	329.006406537290	956.003314142565	1199.703534835790	191.077320507057	1041.770424766498	921.486792166856	204.196878499821	1002.353491361577	1161.165731536792	850.805983202812	1213.130103831425	979.593986729849	767.529013653003	1106.778369381062	771.440657181110	345.301083754972	1061.180177892125	687.763203478519	297.338795336361	1156.911616014110	653.050076101007	349.691384300456	1183.710407066443	504.784676682343	339.623271650199	1082.308797149072	418.959497228661	362.521290551406	987.010099817930	406.339064620470	286.237040808133	979.758077061144	344.456339808620	373.508481791941	731.514898495766	251.541152145111	367.231169694098	785.172009118530	172.679672100086	312.677213830430	898.349746041389	158.560527236032	358.742749334149	950.238803450482	60.384828380366	369.635987510747	1051.411951027771	732.040276292340	627.199211015006	956.879686666432	661.463791882328	679.531078499648	1027.654167722986	604.631290006343	599.844571496257	1019.577049168248	510.384008580319	623.625598885572	976.020848395857	419.881994473703	584.189588640450	909.999774696199	348.777204367934	664.736008049342	963.845036346693	281.710198758072	577.954065777332	847.690942830159	53.646654525015	534.728883948801	925.275216763435	24.458013875843	608.423998918874	1031.280954846223	87.923947417911	585.406818068218	1135.306810882707	44.775432803966	586.213312595421	
